# xmcd
#
# Track frame offsets:
# 150
# 26990
# 77982
# 106120
#
# Disc length: 2045 seconds
#
# Revision: 1
# Processed by: cddbd v1.5.2PL0 Copyright (c) Steve Scherf et al.
# Submitted via: Easy CD Ripper 2.3.11
#
DISCID=2a07fb04
DTITLE=Carter - Spanish Blue
DYEAR=1974
DGENRE=Blues
TTITLE0=El Noche Sol - Ron Carter
TTITLE1=So what? - Ron Carter
TTITLE2=Sabado Sombero - Ron Carter
TTITLE3=Arkansas - Ron Carter
EXTD=
EXTT0=
EXTT1=
EXTT2=
EXTT3=
PLAYORDER=
